<?xml version="1.0" encoding="UTF-8" standalone="no"?>
<!-- Created with Inkscape (http://www.inkscape.org/) -->

<svg
   xmlns:dc="http://purl.org/dc/elements/1.1/"
   xmlns:cc="http://creativecommons.org/ns#"
   xmlns:rdf="http://www.w3.org/1999/02/22-rdf-syntax-ns#"
   xmlns:svg="http://www.w3.org/2000/svg"
   xmlns="http://www.w3.org/2000/svg"
   xmlns:xlink="http://www.w3.org/1999/xlink"
   xmlns:sodipodi="http://sodipodi.sourceforge.net/DTD/sodipodi-0.dtd"
   xmlns:inkscape="http://www.inkscape.org/namespaces/inkscape"
   width="36.124443mm"
   height="36.124443mm"
   viewBox="0 0 128 127.99999"
   id="svg7405"
   version="1.1"
   inkscape:version="0.91 r13725"
   sodipodi:docname="scala-bridge-logo-3.svg">
  <defs
     id="defs7407">
    <linearGradient
       inkscape:collect="always"
       xlink:href="#linearGradient4775"
       id="linearGradient4289"
       gradientUnits="userSpaceOnUse"
       x1="-181.88687"
       y1="280.10892"
       x2="-172.1947"
       y2="333.85892" />
    <linearGradient
       id="linearGradient4775">
      <stop
         style="stop-color:#f1adab;stop-opacity:1;"
         offset="0"
         id="stop4777" />
      <stop
         style="stop-color:#b73d38;stop-opacity:1;"
         offset="1"
         id="stop4779" />
    </linearGradient>
  </defs>
  <sodipodi:namedview
     id="base"
     pagecolor="#ffffff"
     bordercolor="#666666"
     borderopacity="1.0"
     inkscape:pageopacity="0.0"
     inkscape:pageshadow="2"
     inkscape:zoom="1.0650391"
     inkscape:cx="74.7447"
     inkscape:cy="82.187287"
     inkscape:document-units="px"
     inkscape:current-layer="layer1"
     showgrid="false"
     fit-margin-top="0"
     fit-margin-left="0"
     fit-margin-right="0"
     fit-margin-bottom="0"
     inkscape:window-width="1600"
     inkscape:window-height="876"
     inkscape:window-x="0"
     inkscape:window-y="24"
     inkscape:window-maximized="1" />
  <metadata
     id="metadata7410">
    <rdf:RDF>
      <cc:Work
         rdf:about="">
        <dc:format>image/svg+xml</dc:format>
        <dc:type
           rdf:resource="http://purl.org/dc/dcmitype/StillImage" />
        <dc:title></dc:title>
      </cc:Work>
    </rdf:RDF>
  </metadata>
  <g
     inkscape:label="Layer 1"
     inkscape:groupmode="layer"
     id="layer1"
     transform="translate(-141.10621,-486.54949)">
    <g
       id="g4242"
       transform="matrix(0.83413509,0,0,0.83417621,544.57932,202.77926)"
       inkscape:export-filename="/home/rj/Desktop/g4291.png"
       inkscape:export-xdpi="90"
       inkscape:export-ydpi="90">
      <path
         id="path4244"
         d="m -406.96875,340.1875 c -42.37189,0 -76.71875,34.34686 -76.71875,76.71875 0,42.37189 34.34686,76.71875 76.71875,76.71875 42.37189,0 76.71875,-34.34686 76.71875,-76.71875 0,-42.37189 -34.34686,-76.71875 -76.71875,-76.71875 z m 0,3.5 c 40.43889,0 73.21875,32.77986 73.21875,73.21875 0,40.43889 -32.77986,73.21875 -73.21875,73.21875 -40.43889,0 -73.21875,-32.77986 -73.21875,-73.21875 0,-40.43889 32.77986,-73.21875 73.21875,-73.21875 z"
         style="fill:#015256;fill-opacity:1;stroke:none"
         inkscape:connector-curvature="0" />
      <circle
         r="76.721085"
         cy="305.35892"
         cx="-180.66579"
         style="fill:#015256;fill-opacity:1;stroke:none"
         id="path4246"
         transform="translate(-226.31549,111.54237)" />
      <circle
         r="76.721085"
         cy="305.35892"
         cx="-180.66579"
         transform="matrix(0.9543802,0,0,0.9543802,-234.55742,125.47278)"
         id="path4248"
         style="fill:#dc332d;fill-opacity:1;stroke:none" />
      <circle
         r="76.721085"
         cy="305.35892"
         cx="-180.66579"
         style="fill:#015256;fill-opacity:1;stroke:none"
         id="path4251"
         transform="matrix(0.81159392,0,0,0.80122804,-260.35402,172.23916)" />
      <circle
         r="76.721085"
         cy="305.35892"
         cx="-180.66579"
         transform="matrix(0.76538392,0,0,0.75560825,-268.70259,186.16957)"
         id="path4253"
         style="fill:#ffffff;fill-opacity:1;stroke:none" />
      <circle
         r="76.721085"
         cy="305.35892"
         cx="-180.66579"
         style="fill:url(#linearGradient4289);fill-opacity:1;stroke:none"
         id="path4255"
         transform="translate(-226.31548,111.54237)" />
      <path
         id="path4258"
         d="m -473.59375,417 c -0.0335,3.37093 -1.8577,6.46834 -4.78125,8.15625 -1.45666,0.841 -3.06186,1.2705 -4.6875,1.28125 4.69778,37.86857 36.95321,67.1875 76.09375,67.1875 39.15121,0 71.40973,-29.33518 76.09375,-67.21875 -1.52958,-0.0559 -3.06623,-0.4583 -4.4375,-1.25 -2.92346,-1.68786 -4.71638,-4.78544 -4.75,-8.15625 -0.0335,3.37093 -1.85771,6.46834 -4.78125,8.15625 -2.95105,1.70379 -6.58021,1.70379 -9.53125,0 -2.92355,-1.68791 -4.74773,-4.78532 -4.78125,-8.15625 -0.0336,3.37081 -1.82656,6.46839 -4.75,8.15625 -2.95105,1.70379 -6.58019,1.70379 -9.53125,0 -2.92354,-1.68791 -4.74773,-4.78532 -4.78125,-8.15625 -0.0335,3.37093 -1.85771,6.46834 -4.78125,8.15625 -2.95106,1.70379 -6.5802,1.70379 -9.53125,0 -2.92346,-1.68786 -4.71638,-4.78544 -4.75,-8.15625 -0.0335,3.37093 -1.8577,6.46834 -4.78125,8.15625 -2.95105,1.70379 -6.58021,1.70379 -9.53125,0 -2.92355,-1.68791 -4.74773,-4.78532 -4.78125,-8.15625 -0.0335,3.37093 -1.8577,6.46834 -4.78125,8.15625 -2.95105,1.70379 -6.5802,1.70379 -9.53125,0 -2.92346,-1.68786 -4.71638,-4.78544 -4.75,-8.15625 -0.0335,3.37093 -1.8577,6.46834 -4.78125,8.15625 -2.95105,1.70379 -6.5802,1.70379 -9.53125,0 -2.92355,-1.68791 -4.74773,-4.78532 -4.78125,-8.15625 -0.0336,3.37081 -1.82654,6.46839 -4.75,8.15625 -2.95104,1.70379 -6.61146,1.70379 -9.5625,0 -2.92346,-1.68786 -4.71638,-4.78544 -4.75,-8.15625 z"
         style="fill:#37b1b9;fill-opacity:1;stroke:none"
         inkscape:connector-curvature="0" />
      <path
         style="color:#000000;font-style:normal;font-variant:normal;font-weight:normal;font-stretch:normal;font-size:medium;line-height:normal;font-family:Sans;-inkscape-font-specification:Sans;text-indent:0;text-align:start;text-decoration:none;text-decoration-line:none;letter-spacing:normal;word-spacing:normal;text-transform:none;direction:ltr;block-progression:tb;writing-mode:lr-tb;baseline-shift:baseline;text-anchor:start;display:inline;overflow:visible;visibility:visible;fill:#ffffff;fill-opacity:1;fill-rule:nonzero;stroke:none;stroke-width:3;marker:none;enable-background:accumulate"
         d="m -475.09375,417 c -0.0282,2.839 -1.56186,5.41805 -4.03125,6.84375 -1.23493,0.71299 -2.56952,1.0847 -3.9375,1.09375 l -0.21875,0 c 4.01617,38.5961 36.65375,68.6875 76.3125,68.6875 39.66933,0 72.27929,-30.10781 76.28125,-68.71875 l -0.125,0 c -1.30372,-0.0477 -2.60837,-0.40338 -3.75,-1.0625 -2.46524,-1.42331 -3.97159,-3.99559 -4,-6.84375 l -3,0 c -0.0282,2.83899 -1.56187,5.41805 -4.03125,6.84375 -2.48988,1.43753 -5.54138,1.43753 -8.03125,0 -2.46939,-1.4257 -4.00302,-4.00475 -4.03125,-6.84375 l -1.5,0 -1.5,0 c -0.0284,2.84815 -1.53478,5.42044 -4,6.84375 -2.48988,1.43753 -5.54136,1.43754 -8.03125,0 -2.46938,-1.4257 -4.00302,-4.00476 -4.03125,-6.84375 l -1.5,0 -1.5,0 c -0.0282,2.83899 -1.56187,5.41805 -4.03125,6.84375 -2.48989,1.43754 -5.54137,1.43753 -8.03125,0 -2.46524,-1.42331 -3.97159,-3.99559 -4,-6.84375 l -1.5,0 -1.5,0 c -0.0282,2.839 -1.56186,5.41805 -4.03125,6.84375 -2.48988,1.43753 -5.54138,1.43753 -8.03125,0 -2.46939,-1.4257 -4.00302,-4.00475 -4.03125,-6.84375 l -3,0 c -0.0282,2.839 -1.56186,5.41805 -4.03125,6.84375 -2.48988,1.43753 -5.54137,1.43753 -8.03125,0 -2.46524,-1.42331 -3.97159,-3.99559 -4,-6.84375 l -1.5,0 -1.5,0 c -0.0282,2.839 -1.56186,5.41805 -4.03125,6.84375 -2.48988,1.43753 -5.54137,1.43753 -8.03125,0 -2.46939,-1.4257 -4.00302,-4.00475 -4.03125,-6.84375 l -3,0 c -0.0284,2.84816 -1.53476,5.42044 -4,6.84375 -2.4859,1.43524 -5.5766,1.43524 -8.0625,0 -2.46524,-1.42331 -3.97159,-3.99559 -4,-6.84375 l -1.5,0 -1.5,0 z m 1.5,5.46875 c 0.94742,1.62935 2.30916,3.02379 4,4 3.41618,1.97234 7.64632,1.97234 11.0625,0 1.69084,-0.97621 3.05258,-2.37065 4,-4 0.95573,1.62847 2.34239,3.02494 4.03125,4 3.41222,1.97005 7.61903,1.97005 11.03125,0 1.68886,-0.97506 3.07552,-2.37153 4.03125,-4 0.94742,1.62935 2.30916,3.02379 4,4 3.41222,1.97005 7.61903,1.97005 11.03125,0 1.68886,-0.97506 3.07552,-2.37153 4.03125,-4 0.95573,1.62847 2.34239,3.02494 4.03125,4 3.41221,1.97005 7.61903,1.97005 11.03125,0 1.68886,-0.97506 3.07552,-2.37153 4.03125,-4 0.94742,1.62935 2.30916,3.02379 4,4 3.41222,1.97005 7.61902,1.97004 11.03125,0 1.68885,-0.97506 3.07552,-2.37153 4.03125,-4 0.95573,1.62847 2.3424,3.02494 4.03125,4 3.41223,1.97004 7.61903,1.97005 11.03125,0 1.69083,-0.97621 3.05258,-2.37065 4,-4 0.95573,1.62847 2.34239,3.02494 4.03125,4 3.41221,1.97005 7.61903,1.97005 11.03125,0 1.68885,-0.97506 3.07552,-2.37153 4.03125,-4 0.94742,1.62935 2.30916,3.02379 4,4 1.08685,0.62749 2.25038,0.96612 3.4375,1.1875 -5.22675,36.43896 -36.44413,64.46875 -74.34375,64.46875 -37.87869,0 -69.09101,-27.99688 -74.34375,-64.40625 1.27924,-0.21642 2.53071,-0.58213 3.6875,-1.25 1.68886,-0.97506 3.07552,-2.37153 4.03125,-4 z"
         id="path4260"
         inkscape:connector-curvature="0" />
      <path
         id="path4262"
         d="m -468.15625,444.65625 c -0.0291,2.931 -1.61424,5.62612 -4.15625,7.09375 -0.78886,0.45545 -1.6358,0.79273 -2.5,0.96875 12.86842,24.31928 38.41442,40.90625 67.84375,40.90625 30.00856,0 55.98493,-17.23825 68.59375,-42.34375 -0.23878,0.17422 -0.49067,0.31903 -0.75,0.46875 -2.56592,1.48144 -5.71534,1.48144 -8.28125,0 -2.54201,-1.46763 -4.1271,-4.16275 -4.15625,-7.09375 -0.0291,2.931 -1.64549,5.62612 -4.1875,7.09375 -2.56592,1.48144 -5.71533,1.48144 -8.28125,0 -2.54193,-1.46758 -4.09577,-4.16285 -4.125,-7.09375 -0.0291,2.931 -1.61424,5.62612 -4.15625,7.09375 -2.56593,1.48144 -5.71533,1.48144 -8.28125,0 -2.54201,-1.46763 -4.12711,-4.16275 -4.15625,-7.09375 -0.006,0.6326 -0.10666,1.24322 -0.25,1.84375 -0.14334,-0.60053 -0.21244,-1.21115 -0.21875,-1.84375 -0.0291,2.931 -1.61424,5.62612 -4.15625,7.09375 -1.20775,0.6973 -2.56021,1.05287 -3.90625,1.09375 -1.35483,-0.0398 -2.69637,-0.39522 -3.90625,-1.09375 -2.54193,-1.46758 -4.12701,-4.16285 -4.15625,-7.09375 -0.006,0.65387 -0.0639,1.28702 -0.21875,1.90625 -0.15583,-0.62121 -0.24348,-1.25012 -0.25,-1.90625 -0.0292,2.9309 -1.61434,5.62617 -4.15625,7.09375 -2.56592,1.48144 -5.71532,1.48144 -8.28125,0 -2.542,-1.46763 -4.1271,-4.16275 -4.15625,-7.09375 -0.0291,2.931 -1.61425,5.62612 -4.15625,7.09375 -2.56593,1.48144 -5.71532,1.48144 -8.28125,0 -2.54193,-1.46758 -4.09577,-4.16285 -4.125,-7.09375 -0.0291,2.931 -1.61424,5.62612 -4.15625,7.09375 -2.56592,1.48144 -5.71534,1.48144 -8.28125,0 -2.54201,-1.46763 -4.1271,-4.16275 -4.15625,-7.09375 -0.0291,2.931 -1.64549,5.62612 -4.1875,7.09375 -2.56592,1.48144 -5.71533,1.48144 -8.28125,0 -2.54193,-1.46758 -4.09577,-4.16285 -4.125,-7.09375 z"
         style="fill:#1c8085;fill-opacity:1;stroke:none"
         inkscape:connector-curvature="0" />
      <path
         style="color:#000000;font-style:normal;font-variant:normal;font-weight:normal;font-stretch:normal;font-size:medium;line-height:normal;font-family:Sans;-inkscape-font-specification:Sans;text-indent:0;text-align:start;text-decoration:none;text-decoration-line:none;letter-spacing:normal;word-spacing:normal;text-transform:none;direction:ltr;block-progression:tb;writing-mode:lr-tb;baseline-shift:baseline;text-anchor:start;display:inline;overflow:visible;visibility:visible;fill:#ffffff;fill-opacity:1;fill-rule:nonzero;stroke:none;stroke-width:3;marker:none;enable-background:accumulate"
         d="m -469.65625,444.65625 c -0.0238,2.39939 -1.31904,4.5762 -3.40625,5.78125 -0.66395,0.38334 -1.37769,0.67302 -2.0625,0.8125 l -0.40625,0.0937 c 12.62135,25.06923 38.58058,42.28125 68.5625,42.28125 30.14236,0 56.20496,-17.3997 68.75,-42.6875 l -1.03125,-0.875 c -0.15273,0.11144 -0.36413,0.22439 -0.625,0.375 -2.10564,1.2157 -4.67562,1.2157 -6.78125,0 -2.0872,-1.20505 -3.38239,-3.38183 -3.40625,-5.78125 l -1.5,0 -1.5,0 c -0.0237,2.38873 -1.34568,4.57354 -3.4375,5.78125 -2.10564,1.2157 -4.67561,1.2157 -6.78125,0 -2.08246,-1.20231 -3.35097,-3.37126 -3.375,-5.78125 l -3,0 c -0.0238,2.39939 -1.31904,4.5762 -3.40625,5.78125 -2.10566,1.2157 -4.6756,1.2157 -6.78125,0 -2.0872,-1.20505 -3.3824,-3.38183 -3.40625,-5.78125 l -0.46875,0 -2.53125,0 -0.46875,0 c -0.0238,2.39939 -1.31904,4.5762 -3.40625,5.78125 -0.96128,0.555 -2.03261,0.86378 -3.125,0.90625 -0.0204,-6e-4 -0.0422,7.7e-4 -0.0625,0 -1.1005,-0.0416 -2.15799,-0.34794 -3.125,-0.90625 -2.08707,-1.20497 -3.38231,-3.38191 -3.40625,-5.78125 l -0.46875,0 -1.5,0 -1.03125,0 -0.46875,0 c -0.0239,2.3993 -1.31919,4.57628 -3.40625,5.78125 -2.10565,1.2157 -4.67559,1.2157 -6.78125,0 -2.0872,-1.20505 -3.38239,-3.38183 -3.40625,-5.78125 l -1.5,0 -1.5,0 c -0.0238,2.39939 -1.31905,4.5762 -3.40625,5.78125 -2.10566,1.2157 -4.67559,1.2157 -6.78125,0 -2.08246,-1.20231 -3.35097,-3.37126 -3.375,-5.78125 l -3,0 c -0.0238,2.39939 -1.31904,4.5762 -3.40625,5.78125 -2.10564,1.2157 -4.67562,1.2157 -6.78125,0 -2.0872,-1.20505 -3.38239,-3.38183 -3.40625,-5.78125 l -3,0 c -0.0237,2.38873 -1.34568,4.57354 -3.4375,5.78125 -2.10564,1.2157 -4.67561,1.2157 -6.78125,0 -2.08246,-1.20231 -3.35097,-3.37126 -3.375,-5.78125 l -1.5,0 -1.5,0 z m 68.09375,4.65625 c 0.85055,1.51964 2.06771,2.8509 3.625,3.75 1.43488,0.82844 3.03722,1.23461 4.625,1.28125 l 0.0312,0 0.0312,0 c 1.57936,-0.048 3.18854,-0.4519 4.625,-1.28125 1.5573,-0.89911 2.77444,-2.23036 3.625,-3.75 0.85065,1.52421 2.09534,2.84881 3.65625,3.75 3.02619,1.74718 6.75505,1.74718 9.78125,0 1.41284,-0.8157 2.53616,-2.00469 3.375,-3.34375 0.83173,1.34713 1.98559,2.52353 3.40625,3.34375 3.0262,1.74718 6.75505,1.74718 9.78125,0 1.42932,-0.82522 2.58835,-2.01398 3.4375,-3.375 0.84052,1.35512 1.98038,2.55177 3.40625,3.375 1.9516,1.12677 4.1846,1.45155 6.34375,1.125 -12.9711,22.60879 -37.20845,37.9375 -65.15625,37.9375 -28.26314,0 -52.79914,-15.62435 -65.65625,-38.65625 0.34986,-0.15449 0.73206,-0.21547 1.0625,-0.40625 1.41284,-0.8157 2.53616,-2.00469 3.375,-3.34375 0.83173,1.34713 1.98559,2.52353 3.40625,3.34375 3.0262,1.74718 6.75505,1.74718 9.78125,0 1.42932,-0.82522 2.58835,-2.01398 3.4375,-3.375 0.84052,1.35512 1.98038,2.55177 3.40625,3.375 3.02619,1.74718 6.75505,1.74718 9.78125,0 1.41284,-0.8157 2.53616,-2.00469 3.375,-3.34375 0.83173,1.34713 1.98559,2.52353 3.40625,3.34375 3.0262,1.74718 6.75505,1.74718 9.78125,0 1.41849,-0.81897 2.56666,-1.99773 3.40625,-3.34375 0.83958,1.34602 1.98776,2.52478 3.40625,3.34375 3.0262,1.74718 6.75506,1.74718 9.78125,0 1.56088,-0.90118 2.8056,-2.22578 3.65625,-3.75 z"
         id="path4265"
         inkscape:connector-curvature="0" />
      <path
         id="path4267"
         d="m -454.8125,469.25 c -0.0212,2.13866 -0.88937,4.15399 -2.34375,5.65625 13.45378,11.64736 30.99567,18.71875 50.1875,18.71875 20.49604,0 39.08174,-8.06168 52.84375,-21.15625 -0.44129,-1.00486 -0.67624,-2.08626 -0.6875,-3.21875 -0.0291,2.931 -1.64549,5.62612 -4.1875,7.09375 -2.56592,1.48144 -5.71533,1.48144 -8.28125,0 -2.54193,-1.46758 -4.09577,-4.16285 -4.125,-7.09375 -0.0291,2.931 -1.61424,5.62612 -4.15625,7.09375 -2.56593,1.48144 -5.71533,1.48144 -8.28125,0 -2.54201,-1.46763 -4.12711,-4.16275 -4.15625,-7.09375 -0.006,0.6326 -0.10666,1.24322 -0.25,1.84375 -0.14334,-0.60053 -0.21244,-1.21115 -0.21875,-1.84375 -0.0291,2.931 -1.61424,5.62612 -4.15625,7.09375 -1.20775,0.6973 -2.56021,1.05287 -3.90625,1.09375 -1.35483,-0.0398 -2.69637,-0.39522 -3.90625,-1.09375 -2.54193,-1.46758 -4.12701,-4.16285 -4.15625,-7.09375 -0.006,0.65387 -0.0639,1.28702 -0.21875,1.90625 -0.15583,-0.62121 -0.24348,-1.25012 -0.25,-1.90625 -0.0292,2.9309 -1.61434,5.62617 -4.15625,7.09375 -2.56592,1.48144 -5.71532,1.48144 -8.28125,0 -2.542,-1.46763 -4.1271,-4.16275 -4.15625,-7.09375 -0.0291,2.931 -1.61425,5.62612 -4.15625,7.09375 -2.56593,1.48144 -5.71532,1.48144 -8.28125,0 -2.54193,-1.46758 -4.09577,-4.16285 -4.125,-7.09375 -0.0291,2.931 -1.61424,5.62612 -4.15625,7.09375 -2.56592,1.48144 -5.71534,1.48144 -8.28125,0 -2.54201,-1.46763 -4.1271,-4.16275 -4.15625,-7.09375 z"
         style="fill:#015256;fill-opacity:1;stroke:none"
         inkscape:connector-curvature="0" />
      <path
         style="color:#000000;font-style:normal;font-variant:normal;font-weight:normal;font-stretch:normal;font-size:medium;line-height:normal;font-family:Sans;-inkscape-font-specification:Sans;text-indent:0;text-align:start;text-decoration:none;text-decoration-line:none;letter-spacing:normal;word-spacing:normal;text-transform:none;direction:ltr;block-progression:tb;writing-mode:lr-tb;baseline-shift:baseline;text-anchor:start;display:inline;overflow:visible;visibility:visible;fill:#ffffff;fill-opacity:1;fill-rule:nonzero;stroke:none;stroke-width:3;marker:none;enable-background:accumulate"
         d="m -456.3125,469.25 c -0.0173,1.74215 -0.7107,3.39009 -1.90625,4.625 l -0.0625,0.0625 c 13.59224,12.23321 31.58615,19.6875 51.3125,19.6875 21.07504,0 40.16507,-8.49415 54.03125,-22.25 -0.23526,-0.67429 -0.36755,-1.37575 -0.375,-2.125 l -1.5,0 -1.5,0 c -0.0237,2.38873 -1.34568,4.57354 -3.4375,5.78125 -2.10564,1.2157 -4.67561,1.2157 -6.78125,0 -2.08246,-1.20231 -3.35097,-3.37126 -3.375,-5.78125 l -3,0 c -0.0238,2.39939 -1.31904,4.5762 -3.40625,5.78125 -2.10566,1.2157 -4.6756,1.2157 -6.78125,0 -2.0872,-1.20505 -3.3824,-3.38183 -3.40625,-5.78125 l -0.46875,0 -1.5,0 -1.03125,0 -0.46875,0 c -0.0238,2.39939 -1.31904,4.5762 -3.40625,5.78125 -0.96128,0.555 -2.03261,0.86378 -3.125,0.90625 -0.0204,-6e-4 -0.0422,7.7e-4 -0.0625,0 -1.1005,-0.0416 -2.15799,-0.34794 -3.125,-0.90625 -2.08707,-1.20497 -3.38231,-3.38191 -3.40625,-5.78125 l -0.46875,0 -1.5,0 -1.03125,0 -0.46875,0 c -0.0239,2.3993 -1.31919,4.57628 -3.40625,5.78125 -2.10565,1.2157 -4.67559,1.2157 -6.78125,0 -2.0872,-1.20505 -3.38239,-3.38183 -3.40625,-5.78125 l -3,0 c -0.0238,2.39939 -1.31905,4.5762 -3.40625,5.78125 -2.10566,1.2157 -4.67559,1.2157 -6.78125,0 -2.08246,-1.20231 -3.35097,-3.37126 -3.375,-5.78125 l -1.5,0 -1.5,0 c -0.0238,2.39939 -1.31904,4.5762 -3.40625,5.78125 -2.10564,1.2157 -4.67562,1.2157 -6.78125,0 -2.0872,-1.20505 -3.38239,-3.38183 -3.40625,-5.78125 l -3,0 z m 51.5,4.65625 c 0.85055,1.51964 2.06771,2.8509 3.625,3.75 1.43488,0.82844 3.03722,1.23461 4.625,1.28125 l 0.0312,0 0.0312,0 c 1.57936,-0.048 3.18854,-0.4519 4.625,-1.28125 1.5573,-0.89911 2.77444,-2.23036 3.625,-3.75 0.85065,1.52421 2.09534,2.84881 3.65625,3.75 3.02619,1.74718 6.75505,1.74718 9.78125,0 1.41284,-0.8157 2.53616,-2.00469 3.375,-3.34375 0.83173,1.34713 1.98559,2.52353 3.40625,3.34375 1.12962,0.65219 2.37266,0.95971 3.625,1.125 -12.11031,8.36384 -26.72143,13.34375 -42.5625,13.34375 -16.51071,0 -31.75404,-5.32552 -44.15625,-14.34375 2.9751,1.59316 6.56454,1.5698 9.5,-0.125 1.41284,-0.8157 2.53616,-2.00469 3.375,-3.34375 0.83173,1.34713 1.98559,2.52353 3.40625,3.34375 3.0262,1.74718 6.75505,1.74718 9.78125,0 1.41849,-0.81897 2.56666,-1.99773 3.40625,-3.34375 0.83958,1.34602 1.98776,2.52478 3.40625,3.34375 3.0262,1.74718 6.75506,1.74718 9.78125,0 1.56088,-0.90118 2.8056,-2.22578 3.65625,-3.75 z m -50.09375,0.25 c 0.33522,0.56011 0.74567,1.07759 1.1875,1.5625 -0.48631,-0.38714 -0.99232,-0.75747 -1.46875,-1.15625 0.0939,-0.13688 0.19435,-0.26486 0.28125,-0.40625 z"
         id="path4269"
         inkscape:connector-curvature="0" />
      <circle
         r="76.721085"
         cy="305.35892"
         cx="-180.66579"
         style="fill:#ffffff;fill-opacity:1;stroke:none"
         id="path4271"
         transform="matrix(0.70003311,0,0,0.69109212,-280.50924,205.87014)" />
      <path
         style="fill:#015256;fill-opacity:1;stroke:none"
         d="m -406.96875,340.1875 c -42.37189,0 -76.71875,34.34686 -76.71875,76.71875 0,42.37189 34.34686,76.71875 76.71875,76.71875 42.37189,0 76.71875,-34.34686 76.71875,-76.71875 0,-42.37189 -34.34686,-76.71875 -76.71875,-76.71875 z m 0,3.5 c 40.43889,0 73.21875,32.77986 73.21875,73.21875 0,40.43889 -32.77986,73.21875 -73.21875,73.21875 -40.43889,0 -73.21875,-32.77986 -73.21875,-73.21875 0,-40.43889 32.77986,-73.21875 73.21875,-73.21875 z"
         id="path4273"
         inkscape:connector-curvature="0" />
      <g
         transform="matrix(0.71748407,0,0,0.71748407,-478.72968,345.15288)"
         id="g4275">
        <path
           inkscape:connector-curvature="0"
           style="fill:#b73d38;fill-opacity:1"
           d="m 100,32 c -37.555363,0 -68,30.444637 -68,68 0,37.55536 30.444637,68 68,68 37.55536,0 68,-30.44464 68,-68 0,-37.555363 -30.44464,-68 -68,-68 z"
           id="path4277" />
        <path
           style="opacity:0.6;fill:#ffffff"
           inkscape:connector-curvature="0"
           id="path4279"
           d="m 68.5,87.4 c 0,0 62.9,6.3 62.9,16.8 l 0,-25.2 c 0,0 0,-10.5 -62.9,-16.8 l 0,9.8 0,15.4 z" />
        <path
           style="opacity:0.6;fill:#ffffff"
           inkscape:connector-curvature="0"
           id="path4281"
           d="m 68.5,121 c 0,0 62.9,6.3 62.9,16.8 l 0,-25.2 c 0,0 0,-10.5 -62.9,-16.8 l 0,25.2 z" />
        <path
           d="m 131.5,45.5 0,25.2 c 0,0 0,10.5 -62.9,16.8 l 0,-25.3 c -0.1,0 62.9,-6.2 62.9,-16.7"
           id="path4283"
           inkscape:connector-curvature="0"
           style="fill:#ffffff" />
        <path
           d="m 68.5,95.8 c 0,0 62.9,-6.3 62.9,-16.8 l 0,25.2 c 0,0 0,10.5 -62.9,16.8 l 0,-25.2 z"
           id="path4285"
           inkscape:connector-curvature="0"
           style="fill:#ffffff" />
        <path
           d="m 68.5,154.5 0,-25.2 c 0,0 62.9,-6.3 62.9,-16.8 l 0,25.2 c 0.1,0.1 0.1,10.5 -62.9,16.8"
           id="path4287"
           inkscape:connector-curvature="0"
           style="fill:#ffffff" />
      </g>
    </g>
  </g>
</svg>
